# xmcd
#
# Track frame offsets: 
#        150
#        12030
#        26510
#        40655
#        54050
#        67950
#        81840
#        93460
#        106695
#        119960
#        134430
#        148730
#        161030
#        173030
#        186105
#
# Disc length: 2646 seconds
#
# Revision: 5
# Processed by: cddbd v1.5.2PL0 Copyright (c) Steve Scherf et al.
# Submitted via: ExactAudioCopyFreeDBPlugin 1.0
#
DISCID=c10a540f
DTITLE=Duke Ellington - The Jazz Masters - 100 Anos de Swing
DYEAR=1996
DGENRE=Jazz
TTITLE0=East St. Louis Toodle-do
TTITLE1=Contton Tail
TTITLE2=Lomesome Lullaby
TTITLE3=Stop look and Listen
TTITLE4=Ko-Ko
TTITLE5=Jack The Bear
TTITLE6=Stompy Jones
TTITLE7=The Jeep is Pumpin'
TTITLE8=In a Mellow Tone
TTITLE9=Midriff
TTITLE10=Unbooted Character
TTITLE11=Upper Manhatan medical group
TTITLE12=Frustration
TTITLE13=Day-ream
TTITLE14=Creole Love Call
EXTD=YEAR: 2005
EXTT0=
EXTT1=
EXTT2=
EXTT3=
EXTT4=
EXTT5=
EXTT6=
EXTT7=
EXTT8=
EXTT9=
EXTT10=
EXTT11=
EXTT12=
EXTT13=
EXTT14=
PLAYORDER=
